<svg width="512" height="512" viewBox="0 0 512 512" fill="none" xmlns="http://www.w3.org/2000/svg">
<path d="M429.824 423.27C475.892 378.047 498.927 355.436 507.145 325.862C515.364 296.288 507.299 265.034 491.169 202.526L487.799 189.467C471.668 126.959 463.603 95.7058 442.101 73.8013C420.598 51.8968 389.499 43.2545 327.301 25.9698L314.306 22.3586C252.108 5.07386 221.009 -3.56848 191.288 4.10104C161.567 11.7706 138.533 34.382 92.465 79.6048L82.8402 89.053C36.7722 134.276 13.7382 156.887 5.51962 186.461C-2.69893 216.035 5.36612 247.289 21.4962 309.796L24.8661 322.856C40.9962 385.363 49.0612 416.617 70.5638 438.521C92.0664 460.426 123.165 469.068 185.363 486.353L198.358 489.964C260.556 507.249 291.655 515.891 321.377 508.222C351.098 500.552 374.132 477.941 420.2 432.718L429.824 423.27Z" fill="url(#paint0_linear_558_665)"/>
<path d="M152.064 308.75V320.743H121.224V308.75C109.574 308.636 99.3509 306.18 90.5559 301.383C81.7609 296.585 74.9648 290.075 70.1676 281.851C65.3703 273.627 62.9717 264.261 62.9717 253.753C62.9717 243.701 65.1419 234.564 69.4822 226.34C73.8226 218.002 80.3332 211.377 89.0139 206.465C97.8089 201.554 108.546 198.984 121.224 198.756V188.818H152.064V198.756C163.714 198.87 173.937 201.326 182.732 206.123C191.527 210.92 198.323 217.431 203.12 225.655C207.917 233.878 210.316 243.244 210.316 253.753C210.316 263.804 208.146 272.999 203.805 281.337C199.465 289.561 192.897 296.129 184.102 301.04C175.422 305.951 164.742 308.521 152.064 308.75ZM121.224 282.194V225.312C112.886 225.426 106.49 227.939 102.035 232.85C97.6947 237.762 95.5245 244.729 95.5245 253.753C95.5245 262.662 97.6947 269.572 102.035 274.484C106.49 279.395 112.886 281.965 121.224 282.194ZM152.064 282.194C160.402 282.079 166.741 279.567 171.081 274.655C175.536 269.744 177.763 262.776 177.763 253.753C177.763 244.844 175.536 237.933 171.081 233.022C166.741 228.11 160.402 225.54 152.064 225.312V282.194Z" fill="white"/>
<path d="M223.152 314.918V194.986H300.251V220.686H253.992V237.819H267.698C275.808 237.819 283.061 239.304 289.457 242.274C295.854 245.243 300.822 249.584 304.363 255.295C308.018 261.006 309.846 267.802 309.846 275.683C309.846 283.679 308.018 290.646 304.363 296.585C300.822 302.525 295.854 307.094 289.457 310.292C283.061 313.376 275.808 314.918 267.698 314.918H223.152ZM263.758 289.218C268.441 289.218 272.039 288.133 274.552 285.963C277.179 283.679 278.492 280.366 278.492 276.026C278.492 272.371 277.236 269.401 274.723 267.117C272.21 264.718 268.384 263.519 263.244 263.519H253.992V289.218H263.758Z" fill="white"/>
<path d="M421.044 289.218H435.607V340.617H408.194V314.918H343.088V340.617H315.675V289.218H327.497C334.693 270.143 338.291 245.643 338.291 215.717V194.986H421.044V289.218ZM367.76 220.686C367.417 249.127 364.105 271.971 357.823 289.218H390.204V220.686H367.76Z" fill="white"/>
<defs>
<linearGradient id="paint0_linear_558_665" x1="463" y1="40" x2="77.5" y2="495" gradientUnits="userSpaceOnUse">
<stop stop-color="#D7C7AD"/>
<stop offset="0.484375" stop-color="#9F8A6C"/>
<stop offset="1" stop-color="#B7A99C"/>
</linearGradient>
</defs>
</svg>
