<svg width="32" height="32" viewBox="0 0 32 32" fill="none" xmlns="http://www.w3.org/2000/svg">
<path d="M0 16C0 7.16344 7.16344 0 16 0C24.8366 0 32 7.16344 32 16C32 24.8366 24.8366 32 16 32C7.16344 32 0 24.8366 0 16Z" fill="white" fill-opacity="0.2"/>
<path fill-rule="evenodd" clip-rule="evenodd" d="M20.8763 11.4703C20.8763 14.1395 18.7003 16.3155 16.0309 16.3155C13.3327 16.3155 11.1567 14.1395 11.1567 11.4703C11.1567 8.80101 13.3327 6.625 16.0309 6.625C18.7003 6.625 20.8763 8.80101 20.8763 11.4703ZM18.0329 11.4703C18.0329 10.3677 17.1335 9.46832 16.0309 9.46832C14.8995 9.46832 14 10.3677 14.0291 11.4703C14.0291 12.5728 14.9285 13.4721 16.0309 13.4721C17.1335 13.4721 18.0329 12.5728 18.0329 11.4703Z" fill="white"/>
<path d="M20.7892 19.1299C19.9188 19.6811 18.9613 20.0583 17.9749 20.2904L20.7312 22.9596C21.2824 23.5109 21.2824 24.4103 20.7312 24.9616C20.18 25.5128 19.2805 25.5128 18.7293 24.9616L16.06 22.2923L13.3908 24.9616C13.1007 25.2227 12.7525 25.3677 12.3753 25.3677C11.9982 25.3677 11.65 25.2517 11.3599 24.9616C10.8086 24.4103 10.8086 23.5109 11.3599 22.9596L14.0581 20.2613C13.0716 20.0292 12.1142 19.6521 11.2438 19.1008C10.5765 18.6947 10.3734 17.8243 10.7506 17.1569C11.1858 16.4896 12.0562 16.3156 12.7235 16.7217C14.6964 17.9693 17.2785 17.9693 19.2515 16.7217C19.9188 16.2865 20.8183 16.4896 21.2244 17.1569C21.6596 17.8243 21.4565 18.7236 20.7892 19.1299Z" fill="white"/>
</svg>
