<svg width="32" height="32" viewBox="0 0 32 32" fill="none" xmlns="http://www.w3.org/2000/svg">
<path d="M32 16C32 7.16344 24.8366 0 16 0C7.16344 0 0 7.16344 0 16C0 24.8366 7.16344 32 16 32C24.8366 32 32 24.8366 32 16Z" fill="white" fill-opacity="0.2"/>
<path d="M16.8002 22C10.6503 22 7.14386 17.8783 7 11.0088H10.0929C10.1918 16.0464 12.4575 18.1777 14.2557 18.6181V11.0088H17.1598V15.3507C18.9311 15.1657 20.8012 13.1841 21.4306 11H24.3257C24.0896 12.1306 23.6181 13.2014 22.9405 14.1455C22.2629 15.0895 21.3938 15.8866 20.3876 16.4868C21.5105 17.0343 22.5022 17.8087 23.2972 18.759C24.0923 19.7093 24.6726 20.8139 25 22H21.8082C21.1249 19.9127 19.4166 18.2922 17.1598 18.0721V22H16.8092H16.8002Z" fill="white"/>
</svg>
