<?xml version="1.0" encoding="utf-8"?>
<!-- Generator: Adobe Illustrator 26.3.1, SVG Export Plug-In . SVG Version: 6.00 Build 0)  -->
<svg version="1.1" id="Layer_1" xmlns="http://www.w3.org/2000/svg" xmlns:xlink="http://www.w3.org/1999/xlink" x="0px" y="0px"
	 viewBox="0 0 584.28 150.46" style="enable-background:new 0 0 584.28 150.46;" xml:space="preserve">
<style type="text/css">
	.st0{fill-rule:evenodd;clip-rule:evenodd;fill:#17AA1A;}
	.st1{fill-rule:evenodd;clip-rule:evenodd;fill:#F15300;}
</style>
<g id="Layer_2_00000111897984308662633720000003746859564664865176_">
	<g id="Цветкор_00000145753559410868706960000013820938555876983195_">
		<g>
			<path class="st0" d="M116.57,48.87c0.85,4.43,0.6,8.6-0.79,12.34c-0.76,2.04-1.84,3.92-3.21,5.6v40.41h13.67V48.87L116.57,48.87
				L116.57,48.87z"/>
			<path class="st0" d="M200.02,107.23H185.3l-5.83-13.28H152.4l-5.61,13.28h-14.46l26.2-58.35h14.44L200.02,107.23z M175.04,84.08
				l-9.38-21.59l-9.11,21.59H175.04z"/>
			<polygon class="st1" points="207.1,107.23 207.1,48.87 227.57,48.87 239.67,88.67 251.62,48.87 272.14,48.87 272.14,107.23 
				259.51,107.23 259.46,61.29 246.15,107.23 233.02,107.23 219.78,61.29 219.73,107.23 			"/>
			<path class="st1" d="M346.6,107.23h-14.72l-5.83-13.28h-27.07l-5.61,13.28h-14.45l26.2-58.35h14.43L346.6,107.23z M321.62,84.08
				l-9.38-21.59l-9.11,21.59H321.62z"/>
			<path class="st1" d="M353.87,107.23V48.88h28.7c7.21,0,12.46,0.53,15.72,1.58c3.28,1.05,5.89,2.91,7.85,5.58
				c1.96,2.69,2.95,5.75,2.95,9.2c0,4.39-1.48,8-4.45,10.86c-2.97,2.85-7.4,4.64-13.31,5.39c2.94,1.48,5.36,3.11,7.26,4.89
				c1.92,1.78,4.49,4.94,7.73,9.48l8.23,11.38h-16.29l-9.77-12.74c-3.5-4.53-5.9-7.38-7.21-8.56c-1.28-1.17-2.65-1.98-4.1-2.42
				c-1.46-0.43-3.76-0.65-6.9-0.65h-2.76v24.37L353.87,107.23L353.87,107.23z M367.54,73.57h10.09c6.53,0,10.6-0.24,12.24-0.72
				c1.62-0.47,2.91-1.3,3.81-2.47c0.93-1.17,1.38-2.64,1.38-4.39c0-1.97-0.61-3.55-1.82-4.77c-1.21-1.21-2.92-1.97-5.12-2.28
				c-1.11-0.14-4.43-0.2-9.94-0.2h-10.64L367.54,73.57L367.54,73.57z"/>
			<polygon class="st1" points="422.12,107.23 422.12,48.87 435.79,48.87 435.79,74.72 463.33,48.87 481.65,48.87 456.18,71.6 
				482.97,107.23 465.34,107.23 446.77,79.83 435.79,89.58 435.79,107.23 			"/>
			<path class="st1" d="M550.79,107.23h-14.72l-5.83-13.28h-27.07l-5.61,13.28H483.1l26.2-58.35h14.44L550.79,107.23z M525.82,84.08
				l-9.38-21.59l-9.11,21.59H525.82z"/>
		</g>
		<path class="st0" d="M43.59,48.42h25.1c5.65,0,9.96,0.37,12.94,1.12c3.45,0.87,6.47,2.34,9.05,4.4
			c-7.54,14.09,6.95,19.92-0.45,27.25c-0.33,0.32,4.89-5.21,8.14-6.59c0.71-0.3,1.38-0.63,2.03-0.98c0.14,1.51,0.2,3.1,0.2,4.77
			c0,4.83-0.7,9.01-2.09,12.51c-1.69,4.27-4.12,7.74-7.28,10.38c-2.38,2.01-5.59,3.57-9.64,4.7c-3.02,0.83-7.08,1.24-12.16,1.24
			H43.59V48.42z M57.32,58.38v38.94h10.24c3.83,0,6.6-0.18,8.31-0.56c2.22-0.48,4.07-1.29,5.54-2.44c1.47-1.15,2.66-3.05,3.59-5.68
			c0.92-2.63,1.39-6.23,1.39-10.77c0-4.55-0.47-8.02-1.39-10.46c-0.93-2.44-2.23-4.34-3.89-5.69c-1.68-1.37-3.8-2.29-6.36-2.77
			c-1.92-0.38-5.67-0.56-11.27-0.56L57.32,58.38L57.32,58.38z"/>
		<path class="st1" d="M107.7,33.64c0.58,2.75,1.16,5.5,1.74,8.25c6.37,12.94,2.69,23.02-7.87,27.51c-3.24,1.38-8.46,6.92-8.14,6.6
			C103.04,66.47,75.71,59.49,107.7,33.64z"/>
	</g>
</g>
</svg>
