<svg width="157" height="41" viewBox="0 0 157 41" fill="none" xmlns="http://www.w3.org/2000/svg">
<path d="M16.5004 6.2998C16.1004 6.2998 15.7004 6.4998 15.4004 6.7998C15.1004 7.0998 14.9004 7.4998 14.9004 7.8998V14.4998C14.9004 14.8998 15.1004 15.2998 15.4004 15.5998C15.7004 15.8998 16.1004 16.0998 16.5004 16.0998C17.4004 16.0998 18.1004 15.3998 18.1004 14.4998V7.8998C18.1004 6.9998 17.4004 6.2998 16.5004 6.2998Z" fill="black"/>
<path d="M21.3998 3.5C20.4998 3.5 19.7998 4.2 19.7998 5.1V12.4C19.7998 13.3 20.4998 14 21.3998 14C22.2998 14 22.9998 13.3 22.9998 12.4V5.1C22.9998 4.3 22.2998 3.5 21.3998 3.5Z" fill="black"/>
<path d="M46.0004 3.2998C45.1004 3.2998 44.4004 3.9998 44.4004 4.8998V19.5998C44.4004 20.4998 45.1004 21.1998 46.0004 21.1998C46.9004 21.1998 47.6004 20.4998 47.6004 19.5998V4.8998C47.6004 3.9998 46.9004 3.2998 46.0004 3.2998Z" fill="black"/>
<path d="M26.3002 1.7998C25.4002 1.7998 24.7002 2.4998 24.7002 3.3998V11.2998C24.7002 12.1998 25.4002 12.8998 26.3002 12.8998C27.2002 12.8998 27.9002 12.1998 27.9002 11.2998V3.3998C27.9002 2.4998 27.2002 1.7998 26.3002 1.7998Z" fill="black"/>
<path d="M41.1 1.3999C40.2 1.3999 39.5 2.0999 39.5 2.9999V15.2999C39.5 16.1999 40.2 16.8999 41.1 16.8999C42 16.8999 42.7 16.1999 42.7 15.2999V2.9999C42.6 2.0999 42 1.3999 41.1 1.3999Z" fill="black"/>
<path d="M31.3002 0.799805C30.4002 0.799805 29.7002 1.4998 29.7002 2.3998V11.0998C29.7002 11.9998 30.4002 12.6998 31.3002 12.6998C32.2002 12.6998 32.9002 11.9998 32.9002 11.0998V2.3998C32.9002 1.4998 32.2002 0.799805 31.3002 0.799805Z" fill="black"/>
<path d="M13.2 17.6998V12.3998C13.2 11.4998 12.5 10.7998 11.6 10.7998C10.7 10.7998 10 11.4998 10 12.3998V17.6998C10 18.5998 10.7 19.2998 11.6 19.2998C12.5 19.1998 13.2 18.5998 13.2 17.6998Z" fill="black"/>
<path d="M36.1996 0.700195C35.2996 0.700195 34.5996 1.4002 34.5996 2.3002V12.5002C34.5996 13.4002 35.2996 14.1002 36.1996 14.1002C37.0996 14.1002 37.7996 13.4002 37.7996 12.5002V2.3002C37.7996 1.4002 37.0996 0.700195 36.1996 0.700195Z" fill="black"/>
<path d="M28.4998 23.3998C28.4998 22.4998 27.7998 21.7998 26.8998 21.7998C25.9998 21.7998 25.2998 22.4998 25.2998 23.3998V30.6998C25.2998 31.5998 25.9998 32.2998 26.8998 32.2998C27.7998 32.2998 28.4998 31.5998 28.4998 30.6998V23.3998Z" fill="black"/>
<path d="M13.7996 23.3002C13.7996 22.4002 13.0996 21.7002 12.1996 21.7002C11.2996 21.7002 10.5996 22.4002 10.5996 23.3002V33.6002C10.5996 34.5002 11.2996 35.2002 12.1996 35.2002C13.0996 35.2002 13.7996 34.5002 13.7996 33.6002V23.3002Z" fill="black"/>
<path d="M23.6004 24.4999C23.6004 23.5999 22.9004 22.8999 22.0004 22.8999C21.1004 22.8999 20.4004 23.5999 20.4004 24.4999V32.3999C20.4004 33.2999 21.1004 33.9999 22.0004 33.9999C22.9004 33.9999 23.6004 33.2999 23.6004 32.3999V24.4999Z" fill="black"/>
<path d="M33.4002 21.3998C33.4002 20.4998 32.7002 19.7998 31.8002 19.7998C30.9002 19.7998 30.2002 20.4998 30.2002 21.3998V27.9998C30.2002 28.8998 30.9002 29.5998 31.8002 29.5998C32.7002 29.5998 33.4002 28.8998 33.4002 27.9998V21.3998Z" fill="black"/>
<path d="M8.9002 20.6C8.9002 19.7 8.2002 19 7.3002 19C6.4002 19 5.7002 19.7 5.7002 20.6V32.9C5.7002 33.8 6.4002 34.5 7.3002 34.5C8.2002 34.5 8.9002 33.8 8.9002 32.9V20.6Z" fill="black"/>
<path d="M18.7 24.6C18.7 23.7 18 23 17.1 23C16.2 23 15.5 23.7 15.5 24.6V33.3C15.5 34.2 16.2 34.9 17.1 34.9C18 34.9 18.7 34.2 18.7 33.3V24.6Z" fill="black"/>
<path d="M3.9002 16.3002C3.9002 15.4002 3.2002 14.7002 2.3002 14.7002C1.4002 14.7002 0.700195 15.4002 0.700195 16.3002V30.9002C0.700195 31.8002 1.4002 32.5002 2.3002 32.5002C3.2002 32.5002 3.9002 31.8002 3.9002 30.9002V16.3002Z" fill="black"/>
<path d="M38.4002 18.1C38.4002 17.2 37.7002 16.5 36.8002 16.5C35.9002 16.5 35.2002 17.2 35.2002 18.1V23.4C35.2002 23.8 35.4002 24.2 35.7002 24.5C36.0002 24.8 36.4002 25 36.8002 25C37.7002 25 38.4002 24.3 38.4002 23.4V18.1Z" fill="black"/>
<path d="M146.7 5.9001H140.3L130.2 30.0001H137.1L138.8 25.8001H148L149.7 30.0001H156.8L146.7 5.9001ZM143.4 20.5001H140.7L143.4 13.7001V13.6001L146 20.4001L143.4 20.5001ZM115.9 30.0001H122.5V11.7001H129.7V5.8001H108.8V11.7001H116L115.9 30.0001ZM91.9998 5.9001H98.0998L107.8 30.0001H100.6L95.0998 14.9001L89.6998 30.0001H82.3998L91.9998 5.9001ZM68.5998 30.4001C69.8998 30.4001 71.1998 30.2001 72.4998 29.8001C73.6998 29.4001 74.8998 28.8001 75.7998 28.1001C76.7998 27.4001 77.6998 26.5001 78.3998 25.5001C79.0998 24.5001 79.7998 23.3001 80.0998 22.1001C80.4998 20.8001 80.6998 19.5001 80.6998 18.0001C80.6998 16.6001 80.4998 15.3001 80.0998 14.0001C79.6998 12.7001 79.0998 11.6001 78.3998 10.6001C77.6998 9.6001 76.6998 8.7001 75.6998 8.0001C74.6998 7.3001 73.4998 6.6001 72.2998 6.2001C70.9998 5.8001 69.5998 5.6001 68.1998 5.6001C66.6998 5.6001 65.2998 5.8001 64.0998 6.2001C62.9998 6.6001 61.8998 7.1001 60.9998 7.8001C60.0998 8.4001 59.2998 9.2001 58.5998 10.1001L63.0998 13.9001C63.6998 13.2001 64.4998 12.5001 65.3998 12.1001C66.2998 11.7001 67.2998 11.5001 68.2998 11.5001C69.1998 11.5001 69.9998 11.7001 70.6998 12.1001C71.3998 12.4001 72.0998 12.9001 72.4998 13.5001C72.9998 14.1001 73.3998 14.8001 73.6998 15.6001H65.9998V20.3001H73.7998C73.5998 21.1001 73.1998 21.9001 72.6998 22.5001C72.1998 23.1001 71.5998 23.6001 70.7998 24.0001C70.0998 24.4001 69.1998 24.6001 68.2998 24.6001C67.4998 24.6001 66.8998 24.5001 66.1998 24.3001C65.5998 24.1001 64.9998 23.7001 64.4998 23.4001C63.8998 23.0001 63.4998 22.6001 63.0998 22.0001L58.2998 25.4001C58.9998 26.4001 59.8998 27.2001 60.7998 28.0001C61.7998 28.7001 62.8998 29.4001 64.0998 29.8001C65.3998 30.1001 66.8998 30.4001 68.5998 30.4001Z" fill="black"/>
<path d="M103.1 40.8V36.5H104.6V38H105.8V36.5H107.3V40.8H105.8V39.2H104.6V40.8H103.1Z" fill="black"/>
<path d="M109.5 40.8998C109.1 40.8998 108.7 40.7998 108.5 40.4998C108.3 40.1998 108.1 39.8998 108.1 39.4998C108.1 39.0998 108.3 38.6998 108.6 38.4998C108.9 38.2998 109.3 38.0998 109.8 38.0998C110.2 38.0998 110.5 38.1998 110.8 38.2998V38.1998C110.8 37.6998 110.5 37.4998 109.9 37.4998C109.5 37.4998 109.1 37.5998 108.7 37.6998L108.4 36.5998C108.9 36.3998 109.5 36.2998 110.2 36.2998C110.9 36.2998 111.5 36.4998 111.8 36.7998C112.1 37.0998 112.3 37.5998 112.3 38.1998V40.6998H110.8V40.2998C110.4 40.6998 110 40.8998 109.5 40.8998ZM110 39.8998C110.2 39.8998 110.4 39.7998 110.5 39.6998C110.6 39.5998 110.7 39.3998 110.7 39.1998V38.9998C110.5 38.8998 110.3 38.8998 110.1 38.8998C109.9 38.8998 109.7 38.8998 109.6 38.9998C109.5 39.0998 109.4 39.1998 109.4 39.3998C109.4 39.4998 109.4 39.6998 109.5 39.6998C109.7 39.8998 109.9 39.8998 110 39.8998Z" fill="black"/>
<path d="M113 40.8V36.5H114.5L115.5 38L116.5 36.5H118V40.8H116.5V38.7L115.4 40.2L114.4 38.8V40.9H113V40.8Z" fill="black"/>
<path d="M123.299 40.9C122.299 40.9 121.499 40.6 120.899 39.9L121.899 38.9C122.299 39.3 122.799 39.5 123.199 39.5C123.399 39.5 123.599 39.4 123.699 39.3C123.799 39.2 123.899 39.1 123.899 38.9C123.899 38.7 123.799 38.6 123.699 38.5C123.499 38.4 123.299 38.3 122.999 38.3H122.299L122.099 37.5L123.399 36.3H121.299V35H125.299V36.1L123.999 37.2C124.999 37.4 125.399 37.9 125.399 38.8C125.399 39.4 125.199 39.8 124.799 40.2C124.399 40.7 123.899 40.9 123.299 40.9Z" fill="black"/>
<path d="M130.5 40C130 40.6 129.4 40.8 128.6 40.8C127.8 40.8 127.2 40.5 126.7 40C126.2 39.4 126 38.8 126 37.9C126 37.1 126.2 36.4 126.7 35.8C127.2 35.2 127.8 35 128.6 35C129.4 35 130 35.3 130.5 35.8C131 36.4 131.2 37.1 131.2 37.9C131.2 38.8 131 39.5 130.5 40ZM127.9 39.1C128.1 39.4 128.3 39.5 128.7 39.5C129.1 39.5 129.3 39.4 129.4 39.1C129.6 38.8 129.7 38.4 129.7 38C129.7 37.6 129.6 37.2 129.4 36.9C129.2 36.6 129 36.5 128.7 36.5C128.4 36.5 128.1 36.6 128 36.9C127.8 37.2 127.7 37.6 127.7 38C127.6 38.4 127.7 38.8 127.9 39.1Z" fill="black"/>
<path d="M135.099 40.7999C134.999 40.7999 134.799 40.8999 134.599 40.8999C134.399 40.8999 134.199 40.8999 133.899 40.7999L133.999 39.5999C134.099 39.5999 134.199 39.5999 134.199 39.5999C134.299 39.5999 134.299 39.5999 134.399 39.5999C134.399 39.5999 134.499 39.4999 134.499 39.3999C134.599 39.2999 134.599 39.1999 134.599 38.9999C134.599 38.7999 134.699 38.5999 134.699 38.2999C134.699 37.9999 134.699 37.5999 134.699 37.1999V36.3999H138.399V40.6999H136.999V37.5999H136.199V37.6999C136.199 38.1999 136.199 38.6999 136.099 38.9999C135.999 39.3999 135.999 39.6999 135.899 39.8999C135.799 40.0999 135.699 40.2999 135.499 40.3999C135.399 40.5999 135.199 40.6999 135.099 40.7999Z" fill="black"/>
<path d="M141.4 40.8999C140.7 40.8999 140.2 40.6999 139.7 40.2999C139.3 39.8999 139.1 39.2999 139.1 38.6999C139.1 38.0999 139.3 37.4999 139.7 37.0999C140.1 36.6999 140.6 36.3999 141.3 36.3999C142 36.3999 142.5 36.5999 142.9 37.0999C143.3 37.4999 143.5 38.0999 143.5 38.7999C143.5 38.8999 143.5 38.9999 143.5 39.0999H140.6C140.7 39.5999 141 39.7999 141.5 39.7999C141.8 39.7999 142.2 39.6999 142.5 39.3999L143.3 40.0999C142.8 40.5999 142.2 40.8999 141.4 40.8999ZM140.6 38.2999H142.1C142.1 38.0999 142 37.8999 141.9 37.6999C141.8 37.5999 141.6 37.4999 141.4 37.4999C141.2 37.4999 141 37.5999 140.9 37.6999C140.8 37.7999 140.6 37.9999 140.6 38.2999Z" fill="black"/>
<path d="M145.1 40.8V37.7H143.8V36.5H147.8V37.7H146.5V40.8H145.1Z" fill="black"/>
<path d="M148.8 39.0002L148.3 35.9002V35.2002H150V35.9002L149.5 39.0002H148.8ZM148.4 40.8002V39.4002H150V40.8002H148.4Z" fill="black"/>
</svg>
