<svg width="65" height="17" viewBox="0 0 65 17" fill="none" xmlns="http://www.w3.org/2000/svg">
<path fill-rule="evenodd" clip-rule="evenodd" d="M33.4267 4.47351C32.6768 3.9119 31.7448 3.5791 30.7347 3.5791C28.2568 3.5791 26.248 5.58202 26.248 8.05281C26.248 10.5235 28.2568 12.5265 30.7347 12.5265C33.2126 12.5265 35.2214 10.5235 35.2214 8.05281V3.5791H33.4267V4.47351ZM30.7347 10.737C32.2214 10.737 33.4267 9.53526 33.4267 8.05281C33.4267 6.57036 32.2214 5.36856 30.7347 5.36856C29.248 5.36856 28.0427 6.57036 28.0427 8.05281C28.0427 9.53526 29.248 10.737 30.7347 10.737Z" fill="black"/>
<path d="M33.2218 13.5535C33.3571 13.2279 33.4267 12.8789 33.4267 12.5264H35.2214C35.2214 13.1138 35.1053 13.6956 34.8798 14.2384C34.869 14.2643 34.858 14.2901 34.8468 14.3158C34.6226 14.8281 34.3039 15.2942 33.9072 15.6897C33.4906 16.1051 32.996 16.4347 32.4517 16.6595C31.9073 16.8843 31.3239 17 30.7347 17C30.1455 17 29.5621 16.8843 29.0177 16.6595C28.4734 16.4347 27.9788 16.1051 27.5622 15.6897C27.1655 15.2942 26.8468 14.8281 26.6227 14.3158C26.6114 14.2901 26.6004 14.2643 26.5896 14.2384C26.3641 13.6956 26.248 13.1138 26.248 12.5264H28.0427V12.5269C28.0428 12.8792 28.1124 13.228 28.2477 13.5535C28.3829 13.8792 28.5812 14.1751 28.8312 14.4244C29.0811 14.6736 29.3779 14.8714 29.7045 15.0062C30.0312 15.1411 30.3812 15.2106 30.7347 15.2106C31.0882 15.2106 31.4383 15.1411 31.7649 15.0062C32.0915 14.8714 32.3883 14.6736 32.6382 14.4244C32.8882 14.1751 33.0865 13.8792 33.2218 13.5535Z" fill="black"/>
<path fill-rule="evenodd" clip-rule="evenodd" d="M40.6038 10.737C42.0905 10.737 43.2958 9.53526 43.2958 8.05281C43.2958 6.57036 42.0905 5.36856 40.6038 5.36856C39.117 5.36856 37.9118 6.57036 37.9118 8.05281C37.9118 9.53526 39.117 10.737 40.6038 10.737ZM40.6038 12.5265C43.0817 12.5265 45.0904 10.5235 45.0904 8.05281C45.0904 5.58207 43.0817 3.5791 40.6038 3.5791C38.1259 3.5791 36.1172 5.58207 36.1172 8.05281C36.1172 10.5235 38.1259 12.5265 40.6038 12.5265Z" fill="black"/>
<path fill-rule="evenodd" clip-rule="evenodd" d="M50.4749 10.737C51.9617 10.737 53.1669 9.53525 53.1669 8.0528C53.1669 6.57035 51.9617 5.36855 50.4749 5.36855C48.9882 5.36855 47.7829 6.57035 47.7829 8.0528C47.7829 9.53525 48.9882 10.737 50.4749 10.737ZM50.4749 12.5265C52.9528 12.5265 54.9618 10.5235 54.9618 8.0528C54.9618 5.58206 52.9528 3.5791 50.4749 3.5791C47.9971 3.5791 45.9883 5.58206 45.9883 8.0528C45.9883 10.5235 47.9971 12.5265 50.4749 12.5265Z" fill="black"/>
<path fill-rule="evenodd" clip-rule="evenodd" d="M63.0362 0V4.47337C62.286 3.91175 61.3542 3.57896 60.344 3.57896C57.866 3.57896 55.8574 5.5819 55.8574 8.05263C55.8574 10.5234 57.866 12.5263 60.344 12.5263C62.822 12.5263 64.8306 10.5234 64.8306 8.05263V0H63.0362ZM63.0362 8.05263C63.0362 6.57018 61.8305 5.36844 60.344 5.36844C58.857 5.36844 57.6518 6.57018 57.6518 8.05263C57.6518 9.53509 58.857 10.7369 60.344 10.7369C61.8305 10.7369 63.0362 9.53509 63.0362 8.05263Z" fill="black"/>
<path fill-rule="evenodd" clip-rule="evenodd" d="M1.79466 11.6321C2.54452 12.1937 3.4766 12.5265 4.48664 12.5265C6.96454 12.5265 8.9733 10.5235 8.9733 8.0528C8.9733 5.58206 6.96454 3.5791 4.48664 3.5791C2.00874 3.5791 0 5.58206 0 8.0528L3.53011e-07 16.1054H1.79466V11.6321ZM7.17861 8.0528C7.17861 9.53525 5.97339 10.737 4.48664 10.737C2.9999 10.737 1.79466 9.53525 1.79466 8.0528C1.79466 6.57035 2.9999 5.36855 4.48664 5.36855C5.97339 5.36855 7.17861 6.57035 7.17861 8.0528Z" fill="#37D59C"/>
<path fill-rule="evenodd" clip-rule="evenodd" d="M22.8828 12.5263V7.3006e-08L24.6774 0V12.5263H22.8828Z" fill="#37D59C"/>
<path d="M19.292 3.5791V12.5265H21.0866V3.5791H19.292Z" fill="#37D59C"/>
<path d="M10.0967 7.82898V12.5263H11.8914V7.82898C11.8914 7.8285 11.8914 7.82802 11.8914 7.82754C11.8921 6.4693 12.9966 5.36844 14.359 5.36844C15.2262 5.36844 15.9293 6.06948 15.9293 6.93425V12.5263H17.724V6.93425C17.724 5.08117 16.2174 3.57896 14.359 3.57896C13.4393 3.57896 12.5877 3.86938 11.8914 4.36325V0H10.0967V7.82717C10.0967 7.82776 10.0967 7.82839 10.0967 7.82898Z" fill="#37D59C"/>
</svg>
