<?xml version="1.0" encoding="utf-8"?>
<!-- Generator: Adobe Illustrator 24.3.0, SVG Export Plug-In . SVG Version: 6.00 Build 0)  -->
<svg version="1.1" id="Слой_1" xmlns="http://www.w3.org/2000/svg" xmlns:xlink="http://www.w3.org/1999/xlink" x="0px" y="0px"
	 viewBox="0 0 159 49" style="enable-background:new 0 0 159 49;" xml:space="preserve">
<style type="text/css">
	.st0{fill:#FFFFFF;}
	.st1{enable-background:new    ;}
</style>
<path class="st0" d="M17.5,12.3c-0.4,0-0.8,0.2-1.1,0.5c-0.3,0.3-0.5,0.7-0.5,1.1v6.6c0,0.4,0.2,0.8,0.5,1.1
	c0.3,0.3,0.7,0.5,1.1,0.5c0.9,0,1.6-0.7,1.6-1.6v-6.6C19.1,13,18.4,12.3,17.5,12.3z"/>
<path class="st0" d="M22.4,9.5c-0.9,0-1.6,0.7-1.6,1.6v7.3c0,0.9,0.7,1.6,1.6,1.6s1.6-0.7,1.6-1.6v-7.3C24,10.3,23.3,9.5,22.4,9.5z"
	/>
<path class="st0" d="M47,9.3c-0.9,0-1.6,0.7-1.6,1.6v14.7c0,0.9,0.7,1.6,1.6,1.6s1.6-0.7,1.6-1.6V10.9C48.6,10,47.9,9.3,47,9.3z"/>
<path class="st0" d="M27.3,7.8c-0.9,0-1.6,0.7-1.6,1.6v7.9c0,0.9,0.7,1.6,1.6,1.6s1.6-0.7,1.6-1.6V9.4C28.9,8.5,28.2,7.8,27.3,7.8z"
	/>
<path class="st0" d="M42.1,7.4c-0.9,0-1.6,0.7-1.6,1.6v12.3c0,0.9,0.7,1.6,1.6,1.6c0.9,0,1.6-0.7,1.6-1.6V9
	C43.6,8.1,43,7.4,42.1,7.4z"/>
<path class="st0" d="M32.3,6.8c-0.9,0-1.6,0.7-1.6,1.6v8.7c0,0.9,0.7,1.6,1.6,1.6c0.9,0,1.6-0.7,1.6-1.6V8.4
	C33.9,7.5,33.2,6.8,32.3,6.8z"/>
<path class="st0" d="M14.2,23.7v-5.3c0-0.9-0.7-1.6-1.6-1.6c-0.9,0-1.6,0.7-1.6,1.6v5.3c0,0.9,0.7,1.6,1.6,1.6
	C13.5,25.2,14.2,24.6,14.2,23.7z"/>
<path class="st0" d="M37.2,6.7c-0.9,0-1.6,0.7-1.6,1.6v10.2c0,0.9,0.7,1.6,1.6,1.6c0.9,0,1.6-0.7,1.6-1.6V8.3
	C38.8,7.4,38.1,6.7,37.2,6.7z"/>
<path class="st0" d="M29.5,29.4c0-0.9-0.7-1.6-1.6-1.6s-1.6,0.7-1.6,1.6v7.3c0,0.9,0.7,1.6,1.6,1.6s1.6-0.7,1.6-1.6V29.4z"/>
<path class="st0" d="M14.8,29.3c0-0.9-0.7-1.6-1.6-1.6c-0.9,0-1.6,0.7-1.6,1.6v10.3c0,0.9,0.7,1.6,1.6,1.6c0.9,0,1.6-0.7,1.6-1.6
	V29.3z"/>
<path class="st0" d="M24.6,30.5c0-0.9-0.7-1.6-1.6-1.6s-1.6,0.7-1.6,1.6v7.9c0,0.9,0.7,1.6,1.6,1.6s1.6-0.7,1.6-1.6V30.5z"/>
<path class="st0" d="M34.4,27.4c0-0.9-0.7-1.6-1.6-1.6s-1.6,0.7-1.6,1.6V34c0,0.9,0.7,1.6,1.6,1.6c0.9,0,1.6-0.7,1.6-1.6V27.4z"/>
<path class="st0" d="M9.9,26.6c0-0.9-0.7-1.6-1.6-1.6s-1.6,0.7-1.6,1.6v12.3c0,0.9,0.7,1.6,1.6,1.6s1.6-0.7,1.6-1.6V26.6z"/>
<path class="st0" d="M19.7,30.6c0-0.9-0.7-1.6-1.6-1.6s-1.6,0.7-1.6,1.6v8.7c0,0.9,0.7,1.6,1.6,1.6s1.6-0.7,1.6-1.6V30.6z"/>
<path class="st0" d="M4.9,22.3c0-0.9-0.7-1.6-1.6-1.6s-1.6,0.7-1.6,1.6v14.6c0,0.9,0.7,1.6,1.6,1.6s1.6-0.7,1.6-1.6V22.3z"/>
<path class="st0" d="M39.4,24.1c0-0.9-0.7-1.6-1.6-1.6c-0.9,0-1.6,0.7-1.6,1.6v5.3c0,0.4,0.2,0.8,0.5,1.1s0.7,0.5,1.1,0.5
	c0.9,0,1.6-0.7,1.6-1.6V24.1z"/>
<path class="st0" d="M147.7,11.9h-6.4L131.2,36h6.9l1.7-4.2h9.2l1.7,4.2h7.1L147.7,11.9z M144.4,26.5h-2.7l2.7-6.8v-0.1l2.6,6.8
	L144.4,26.5L144.4,26.5z M116.9,36h6.6V17.7h7.2v-5.9h-20.9v5.9h7.2L116.9,36L116.9,36z M93,11.9h6.1l9.7,24.1h-7.2l-5.5-15.1
	L90.7,36h-7.3L93,11.9L93,11.9z M69.6,36.4c1.3,0,2.6-0.2,3.9-0.6c1.2-0.4,2.4-1,3.3-1.7c1-0.7,1.9-1.6,2.6-2.6
	c0.7-1,1.4-2.2,1.7-3.4c0.4-1.3,0.6-2.6,0.6-4.1c0-1.4-0.2-2.7-0.6-4s-1-2.4-1.7-3.4s-1.7-1.9-2.7-2.6c-1-0.7-2.2-1.4-3.4-1.8
	c-1.3-0.4-2.7-0.6-4.1-0.6c-1.5,0-2.9,0.2-4.1,0.6c-1.1,0.4-2.2,0.9-3.1,1.6c-0.9,0.6-1.7,1.4-2.4,2.3l4.5,3.8
	c0.6-0.7,1.4-1.4,2.3-1.8s1.9-0.6,2.9-0.6c0.9,0,1.7,0.2,2.4,0.6c0.7,0.3,1.4,0.8,1.8,1.4c0.5,0.6,0.9,1.3,1.2,2.1H67v4.7h7.8
	c-0.2,0.8-0.6,1.6-1.1,2.2s-1.1,1.1-1.9,1.5c-0.7,0.4-1.6,0.6-2.5,0.6c-0.8,0-1.4-0.1-2.1-0.3c-0.6-0.2-1.2-0.6-1.7-0.9
	c-0.6-0.4-1-0.8-1.4-1.4l-4.8,3.4c0.7,1,1.6,1.8,2.5,2.6c1,0.7,2.1,1.4,3.3,1.8C66.4,36.1,67.9,36.4,69.6,36.4z"/>
<g class="st1">
	<path class="st0" d="M104.1,46.8v-4.3h1.5V44h1.2v-1.5h1.5v4.3h-1.5v-1.6h-1.2v1.6H104.1z"/>
	<path class="st0" d="M110.5,46.9c-0.4,0-0.8-0.1-1-0.4s-0.4-0.6-0.4-1c0-0.4,0.2-0.8,0.5-1c0.3-0.2,0.7-0.4,1.2-0.4
		c0.4,0,0.7,0.1,1,0.2v-0.1c0-0.5-0.3-0.7-0.9-0.7c-0.4,0-0.8,0.1-1.2,0.2l-0.3-1.1c0.5-0.2,1.1-0.3,1.8-0.3c0.7,0,1.3,0.2,1.6,0.5
		c0.3,0.3,0.5,0.8,0.5,1.4v2.5h-1.5v-0.4C111.4,46.7,111,46.9,110.5,46.9z M111,45.9c0.2,0,0.4-0.1,0.5-0.2s0.2-0.3,0.2-0.5V45
		c-0.2-0.1-0.4-0.1-0.6-0.1s-0.4,0-0.5,0.1c-0.1,0.1-0.2,0.2-0.2,0.4c0,0.1,0,0.3,0.1,0.3C110.7,45.9,110.9,45.9,111,45.9z"/>
	<path class="st0" d="M114,46.8v-4.3h1.5l1,1.5l1-1.5h1.5v4.3h-1.5v-2.1l-1.1,1.5l-1-1.4v2.1H114z"/>
	<path class="st0" d="M124.3,46.9c-1,0-1.8-0.3-2.4-1l1-1c0.4,0.4,0.9,0.6,1.3,0.6c0.2,0,0.4-0.1,0.5-0.2c0.1-0.1,0.2-0.2,0.2-0.4
		s-0.1-0.3-0.2-0.4c-0.2-0.1-0.4-0.2-0.7-0.2h-0.7l-0.2-0.8l1.3-1.2h-2.1v-1.3h4v1.1l-1.3,1.1c1,0.2,1.4,0.7,1.4,1.6
		c0,0.6-0.2,1-0.6,1.4C125.4,46.7,124.9,46.9,124.3,46.9z"/>
	<path class="st0" d="M131.5,46c-0.5,0.6-1.1,0.8-1.9,0.8c-0.8,0-1.4-0.3-1.9-0.8c-0.5-0.6-0.7-1.2-0.7-2.1c0-0.8,0.2-1.5,0.7-2.1
		c0.5-0.6,1.1-0.8,1.9-0.8c0.8,0,1.4,0.3,1.9,0.8c0.5,0.6,0.7,1.3,0.7,2.1C132.2,44.8,132,45.5,131.5,46z M128.9,45.1
		c0.2,0.3,0.4,0.4,0.8,0.4s0.6-0.1,0.7-0.4c0.2-0.3,0.3-0.7,0.3-1.1c0-0.4-0.1-0.8-0.3-1.1c-0.2-0.3-0.4-0.4-0.7-0.4
		c-0.3,0-0.6,0.1-0.7,0.4c-0.2,0.3-0.3,0.7-0.3,1.1C128.6,44.4,128.7,44.8,128.9,45.1z"/>
	<path class="st0" d="M136.1,46.8c-0.1,0-0.3,0.1-0.5,0.1s-0.4,0-0.7-0.1l0.1-1.2c0.1,0,0.2,0,0.2,0c0.1,0,0.1,0,0.2,0
		c0,0,0.1-0.1,0.1-0.2c0.1-0.1,0.1-0.2,0.1-0.4c0-0.2,0.1-0.4,0.1-0.7c0-0.3,0-0.7,0-1.1v-0.8h3.7v4.3H138v-3.1h-0.8v0.1
		c0,0.5,0,1-0.1,1.3c-0.1,0.4-0.1,0.7-0.2,0.9c-0.1,0.2-0.2,0.4-0.4,0.5C136.4,46.6,136.2,46.7,136.1,46.8z"/>
	<path class="st0" d="M142.4,46.9c-0.7,0-1.2-0.2-1.7-0.6c-0.4-0.4-0.6-1-0.6-1.6c0-0.6,0.2-1.2,0.6-1.6c0.4-0.4,0.9-0.7,1.6-0.7
		c0.7,0,1.2,0.2,1.6,0.7c0.4,0.4,0.6,1,0.6,1.7c0,0.1,0,0.2,0,0.3h-2.9c0.1,0.5,0.4,0.7,0.9,0.7c0.3,0,0.7-0.1,1-0.4l0.8,0.7
		C143.8,46.6,143.2,46.9,142.4,46.9z M141.6,44.3h1.5c0-0.2-0.1-0.4-0.2-0.6c-0.1-0.1-0.3-0.2-0.5-0.2c-0.2,0-0.4,0.1-0.5,0.2
		S141.6,44,141.6,44.3z"/>
	<path class="st0" d="M146.1,46.8v-3.1h-1.3v-1.2h4v1.2h-1.3v3.1H146.1z"/>
	<path class="st0" d="M149.8,45l-0.5-3.1v-0.7h1.7v0.7l-0.5,3.1H149.8z M149.4,46.8v-1.4h1.6v1.4H149.4z"/>
</g>
</svg>
